<svg width="128" height="128" viewBox="0 0 128 128" fill="none" xmlns="http://www.w3.org/2000/svg">
<rect width="128" height="128" fill="#030B0D"/>
<path fill-rule="evenodd" clip-rule="evenodd" d="M87.7485 78.2563C87.3735 76.0837 88.101 73.8684 89.7023 72.3313L99.9437 62.4871C103.971 58.6141 101.747 51.8656 96.1824 51.0668L82.0297 49.0398C79.8171 48.7238 77.9046 47.3535 76.9183 45.3762L70.5882 32.731C69.3432 30.2425 66.9207 29 64.4981 29C62.0793 29 59.6568 30.2425 58.4118 32.731L52.0817 45.3762C51.0954 47.3535 49.1829 48.7238 46.9704 49.0398L32.8177 51.0668C27.2526 51.8656 25.0288 58.6141 29.0563 62.4871L39.2978 72.3313C40.899 73.8684 41.6265 76.0837 41.2515 78.2563L38.8327 92.1581C38.079 96.4855 41.5665 100 45.5228 100C46.5654 100 47.6416 99.7551 48.6841 99.2155L61.3406 92.6515C62.3306 92.1403 63.4144 91.8847 64.4981 91.8847C65.5856 91.8847 66.6694 92.1403 67.6594 92.6515L80.3159 99.2155C81.3584 99.7551 82.4347 100 83.4772 100C87.4335 100 90.921 96.4855 90.1673 92.1581L87.7485 78.2563ZM64.5125 63.6389H67.1772V53.2182L64.5125 53.2182V63.6389ZM59.4634 63.6389H62.1282V53.2182H59.4634V63.6389ZM63.8229 80.7047H64.6293C65.9306 80.7047 67.0915 80.5266 68.1122 80.1703C69.1408 79.8218 70.0173 79.3261 70.742 78.6833C71.4666 78.0482 72.0198 77.2892 72.4016 76.4063C72.7834 75.5311 72.9743 74.5592 72.9743 73.4904C72.9743 72.4293 72.7834 71.4573 72.4016 70.5744C72.0198 69.6993 71.4666 68.9403 70.742 68.2974C70.0173 67.6624 69.1408 67.1706 68.1122 66.822C67.0915 66.4735 65.9306 66.2993 64.6293 66.2993H63.8229C62.5295 66.2993 61.3685 66.4735 60.34 66.822C59.3115 67.1783 58.4349 67.6778 57.7103 68.3207C56.9935 68.9635 56.4441 69.7225 56.0623 70.5977C55.6806 71.4806 55.4897 72.4525 55.4897 73.5136C55.4897 74.5824 55.6806 75.5544 56.0623 76.4295C56.4441 77.3125 56.9935 78.0714 57.7103 78.7065C58.4349 79.3416 59.3115 79.8334 60.34 80.1819C61.3685 80.5304 62.5295 80.7047 63.8229 80.7047ZM64.6527 77.1847H63.8229C62.9269 77.1847 62.1321 77.1033 61.4386 76.9407C60.753 76.7781 60.1725 76.5418 59.6972 76.232C59.2297 75.9222 58.8752 75.5389 58.6336 75.0819C58.3921 74.625 58.2713 74.1022 58.2713 73.5136C58.2713 72.925 58.3921 72.4022 58.6336 71.9453C58.8752 71.4883 59.2297 71.1011 59.6972 70.7835C60.1725 70.466 60.753 70.2259 61.4386 70.0633C62.1321 69.9006 62.9269 69.8193 63.8229 69.8193H64.6527C65.5566 69.8193 66.3513 69.9006 67.037 70.0633C67.7227 70.2259 68.2992 70.4621 68.7668 70.7719C69.2343 71.0895 69.5849 71.4728 69.8186 71.922C70.0602 72.379 70.1809 72.9018 70.1809 73.4904C70.1809 74.079 70.0602 74.6017 69.8186 75.0587C69.5849 75.5156 69.2343 75.9029 68.7668 76.2204C68.2992 76.538 67.7227 76.7781 67.037 76.9407C66.3513 77.1033 65.5566 77.1847 64.6527 77.1847Z" fill="#4E5455"/>
</svg>
