<svg width="308" height="33" viewBox="0 0 308 33" fill="none" xmlns="http://www.w3.org/2000/svg">
<path d="M81.2631 26.2573L81.247 16.9967H72.8414V20.3847H76.7296L76.7135 24.644C76.5951 24.7838 76.4177 24.9182 76.1811 25.0473C75.9552 25.1656 75.6917 25.2732 75.3905 25.37C75.0894 25.4668 74.7667 25.5421 74.4225 25.5958C74.0783 25.6496 73.7288 25.6765 73.3738 25.6765C72.793 25.6657 72.2714 25.5743 71.8089 25.4022C71.3571 25.2194 70.9592 24.9559 70.615 24.6117C70.4106 24.4073 70.2224 24.1761 70.0503 23.918C69.889 23.6491 69.7438 23.3587 69.6147 23.0467C69.4104 22.509 69.249 21.8905 69.1307 21.1914C69.0232 20.4923 68.9694 19.7179 68.9694 18.8682V15.6415C68.9694 14.9639 69.007 14.3347 69.0823 13.7539C69.1684 13.1731 69.2867 12.646 69.4373 12.1728C69.6309 11.5597 69.8729 11.0273 70.1633 10.5756C70.4644 10.1238 70.7978 9.75814 71.1635 9.47849C71.4432 9.27413 71.7443 9.11818 72.067 9.01062C72.3897 8.90306 72.7231 8.84928 73.0673 8.84928C73.7019 8.84928 74.245 8.93533 74.6968 9.10742C75.1593 9.26875 75.5411 9.51613 75.8422 9.84956C76.1111 10.1507 76.3209 10.5218 76.4715 10.9628C76.6328 11.4038 76.7511 11.9093 76.8264 12.4793H81.247C81.1287 11.35 80.8759 10.3336 80.4887 9.43009C80.1122 8.52661 79.5852 7.75758 78.9076 7.123C78.23 6.49917 77.3964 6.02055 76.4069 5.68712C75.4282 5.3537 74.2773 5.18698 72.9544 5.18698C72.0939 5.18698 71.2765 5.3053 70.5021 5.54192C69.7277 5.77854 69.0124 6.1281 68.3563 6.5906C67.797 6.99931 67.2807 7.48332 66.8075 8.04261C66.345 8.6019 65.9363 9.23111 65.5814 9.93023C65.2049 10.7154 64.9145 11.592 64.7101 12.56C64.5058 13.5172 64.4036 14.5552 64.4036 15.6737V18.8682C64.4036 20.0405 64.5058 21.1269 64.7101 22.1271C64.9253 23.1274 65.2372 24.0255 65.6459 24.8214C66.0008 25.5421 66.4311 26.182 66.9366 26.7413C67.4528 27.3006 68.0229 27.7739 68.6467 28.1611C69.2813 28.5375 69.975 28.8225 70.7279 29.0161C71.4916 29.2205 72.3036 29.3227 73.1641 29.3227C74.1536 29.3227 75.0786 29.2312 75.9391 29.0484C76.7995 28.8656 77.5793 28.6236 78.2784 28.3224C78.9668 28.032 79.5637 27.7039 80.0692 27.3383C80.5747 26.9726 80.9727 26.6122 81.2631 26.2573ZM86.3129 11.5436V15.2059H91.282V25.3538H86.3129V29H100.543V25.3538H95.8155V11.5436H86.3129ZM90.9593 7.0746C90.9593 7.41878 91.0185 7.74145 91.1368 8.04261C91.2659 8.33301 91.4433 8.58039 91.6692 8.78475C91.8951 8.99986 92.164 9.16658 92.4759 9.28489C92.7985 9.4032 93.1535 9.46236 93.5407 9.46236C94.3366 9.46236 94.9658 9.24187 95.4283 8.80088C95.9015 8.34915 96.1382 7.77372 96.1382 7.0746C96.1382 6.37548 95.9015 5.80543 95.4283 5.36445C94.9658 4.91271 94.3366 4.68685 93.5407 4.68685C93.1535 4.68685 92.7985 4.746 92.4759 4.86431C92.164 4.98263 91.8951 5.14396 91.6692 5.34832C91.4433 5.56343 91.2659 5.82157 91.1368 6.12273C91.0185 6.41313 90.9593 6.73042 90.9593 7.0746ZM113.191 7.2682H108.706V11.5436H104.721V14.8509H108.706V22.7886C108.706 23.9395 108.857 24.929 109.158 25.7572C109.459 26.5746 109.889 27.2468 110.449 27.7739C110.997 28.3116 111.659 28.7096 112.433 28.9677C113.218 29.2151 114.089 29.3388 115.047 29.3388C115.541 29.3388 116.042 29.3119 116.547 29.2581C117.063 29.2151 117.558 29.1506 118.031 29.0645C118.505 28.9785 118.951 28.8709 119.37 28.7419C119.79 28.602 120.156 28.4407 120.467 28.2579L120.032 25.1764C119.827 25.2301 119.58 25.2839 119.29 25.3377C119.01 25.3915 118.709 25.4399 118.386 25.4829C118.053 25.5367 117.703 25.5797 117.338 25.612C116.983 25.6442 116.633 25.6604 116.289 25.6604C115.816 25.6604 115.385 25.6066 114.998 25.499C114.622 25.3915 114.299 25.2086 114.03 24.9505C113.761 24.7031 113.552 24.3697 113.401 23.9502C113.261 23.52 113.191 22.9876 113.191 22.353V14.8509H119.709V11.5436H113.191V7.2682ZM124.614 29H133.181C134.471 29 135.633 28.8548 136.665 28.5644C137.698 28.274 138.575 27.8384 139.295 27.2576C140.016 26.6768 140.57 25.9562 140.957 25.0957C141.344 24.2352 141.538 23.2403 141.538 22.111C141.538 21.5194 141.457 20.9494 141.296 20.4009C141.145 19.8416 140.909 19.3253 140.586 18.852C140.274 18.4111 139.887 18.0239 139.424 17.6904C138.973 17.357 138.359 17.0827 137.585 16.8676V16.8515C137.983 16.7009 138.343 16.5181 138.666 16.303C138.999 16.0878 139.295 15.8512 139.553 15.5931C140.027 15.1198 140.382 14.5713 140.618 13.9475C140.866 13.3129 140.995 12.6407 141.005 11.9308C141.005 10.8337 140.801 9.88183 140.392 9.07515C139.994 8.26848 139.424 7.60163 138.682 7.0746C137.94 6.54757 137.042 6.15499 135.988 5.89686C134.945 5.63872 133.783 5.50965 132.503 5.50965H124.614V29ZM129.163 18.6423H133.39C134.025 18.6531 134.573 18.7391 135.036 18.9004C135.498 19.0618 135.875 19.293 136.165 19.5942C136.456 19.8846 136.665 20.2395 136.795 20.659C136.934 21.0785 137.004 21.5517 137.004 22.0787C137.004 22.5843 136.913 23.0414 136.73 23.4501C136.558 23.8588 136.3 24.2084 135.956 24.4988C135.644 24.7569 135.251 24.9613 134.778 25.1118C134.315 25.2624 133.788 25.3377 133.197 25.3377H129.163V18.6423ZM129.163 15.3672V9.20422H132.519C133.251 9.21498 133.885 9.29564 134.423 9.44622C134.971 9.5968 135.407 9.8388 135.73 10.1722C135.977 10.4089 136.16 10.7046 136.278 11.0596C136.407 11.4145 136.472 11.8286 136.472 12.3018C136.472 12.7536 136.397 13.1569 136.246 13.5119C136.106 13.8668 135.902 14.168 135.633 14.4153C135.31 14.7272 134.885 14.9639 134.358 15.1252C133.831 15.2758 133.224 15.3565 132.535 15.3672H129.163ZM144.038 20.1105V20.4493C144.038 21.7292 144.221 22.9123 144.587 23.9986C144.953 25.0742 145.49 26.0099 146.2 26.8058C146.899 27.6018 147.76 28.2256 148.782 28.6773C149.814 29.1183 150.987 29.3388 152.299 29.3388C153.6 29.3388 154.762 29.1183 155.784 28.6773C156.805 28.2256 157.666 27.6018 158.365 26.8058C159.064 26.0099 159.597 25.0742 159.962 23.9986C160.328 22.9123 160.511 21.7292 160.511 20.4493V20.1105C160.511 18.8413 160.328 17.6689 159.962 16.5934C159.597 15.507 159.064 14.5659 158.365 13.77C157.655 12.9741 156.789 12.3502 155.768 11.8985C154.746 11.4468 153.579 11.2209 152.267 11.2209C150.954 11.2209 149.787 11.4468 148.766 11.8985C147.755 12.3502 146.899 12.9741 146.2 13.77C145.49 14.5659 144.953 15.507 144.587 16.5934C144.221 17.6689 144.038 18.8413 144.038 20.1105ZM148.524 20.4493V20.1105C148.524 19.4006 148.593 18.7284 148.733 18.0938C148.873 17.4592 149.094 16.8999 149.395 16.4159C149.696 15.9319 150.083 15.5501 150.556 15.2704C151.03 14.9908 151.6 14.8509 152.267 14.8509C152.944 14.8509 153.52 14.9908 153.993 15.2704C154.466 15.5501 154.853 15.9319 155.154 16.4159C155.445 16.8999 155.66 17.4592 155.8 18.0938C155.94 18.7284 156.01 19.4006 156.01 20.1105V20.4493C156.01 21.1806 155.94 21.869 155.8 22.5143C155.66 23.1489 155.445 23.7028 155.154 24.1761C154.853 24.6601 154.466 25.0419 153.993 25.3216C153.52 25.6012 152.955 25.741 152.299 25.741C151.621 25.741 151.04 25.6012 150.556 25.3216C150.083 25.0419 149.696 24.6601 149.395 24.1761C149.094 23.7028 148.873 23.1489 148.733 22.5143C148.593 21.869 148.524 21.1806 148.524 20.4493ZM163.883 20.1105V20.4493C163.883 21.7292 164.065 22.9123 164.431 23.9986C164.797 25.0742 165.335 26.0099 166.045 26.8058C166.744 27.6018 167.604 28.2256 168.626 28.6773C169.658 29.1183 170.831 29.3388 172.143 29.3388C173.444 29.3388 174.606 29.1183 175.628 28.6773C176.65 28.2256 177.51 27.6018 178.209 26.8058C178.908 26.0099 179.441 25.0742 179.806 23.9986C180.172 22.9123 180.355 21.7292 180.355 20.4493V20.1105C180.355 18.8413 180.172 17.6689 179.806 16.5934C179.441 15.507 178.908 14.5659 178.209 13.77C177.499 12.9741 176.633 12.3502 175.612 11.8985C174.59 11.4468 173.423 11.2209 172.111 11.2209C170.799 11.2209 169.632 11.4468 168.61 11.8985C167.599 12.3502 166.744 12.9741 166.045 13.77C165.335 14.5659 164.797 15.507 164.431 16.5934C164.065 17.6689 163.883 18.8413 163.883 20.1105ZM168.368 20.4493V20.1105C168.368 19.4006 168.438 18.7284 168.577 18.0938C168.717 17.4592 168.938 16.8999 169.239 16.4159C169.54 15.9319 169.927 15.5501 170.401 15.2704C170.874 14.9908 171.444 14.8509 172.111 14.8509C172.788 14.8509 173.364 14.9908 173.837 15.2704C174.31 15.5501 174.697 15.9319 174.999 16.4159C175.289 16.8999 175.504 17.4592 175.644 18.0938C175.784 18.7284 175.854 19.4006 175.854 20.1105V20.4493C175.854 21.1806 175.784 21.869 175.644 22.5143C175.504 23.1489 175.289 23.7028 174.999 24.1761C174.697 24.6601 174.31 25.0419 173.837 25.3216C173.364 25.6012 172.799 25.741 172.143 25.741C171.465 25.741 170.885 25.6012 170.401 25.3216C169.927 25.0419 169.54 24.6601 169.239 24.1761C168.938 23.7028 168.717 23.1489 168.577 22.5143C168.438 21.869 168.368 21.1806 168.368 20.4493ZM190.906 21.7883L195.859 29H201.361L193.859 18.8198L200.441 11.5436H195.053L190.229 16.8354L188.873 18.3842V4.21898H184.388V29H188.873V23.676L190.906 21.7883ZM206.975 11.5436H203.119V29H207.201V15.9319C207.255 15.7921 207.314 15.663 207.379 15.5447C207.443 15.4264 207.518 15.3242 207.604 15.2381C207.723 15.1198 207.857 15.0284 208.008 14.9639C208.158 14.8993 208.33 14.8671 208.524 14.8671C208.696 14.8671 208.857 14.894 209.008 14.9477C209.159 14.9908 209.293 15.0714 209.411 15.1897C209.519 15.3081 209.605 15.4748 209.669 15.6899C209.734 15.905 209.766 16.1793 209.766 16.5127V29H213.719V16.1255C213.719 15.9964 213.719 15.8942 213.719 15.8189C213.719 15.7437 213.719 15.6953 213.719 15.6737C213.773 15.5554 213.837 15.4533 213.913 15.3672C213.988 15.2704 214.074 15.1844 214.171 15.1091C214.289 15.0338 214.413 14.9746 214.542 14.9316C214.682 14.8886 214.838 14.8671 215.01 14.8671C215.171 14.8671 215.327 14.894 215.478 14.9477C215.639 14.9908 215.779 15.0714 215.897 15.1897C216.015 15.3188 216.107 15.4909 216.171 15.706C216.247 15.9211 216.284 16.1954 216.284 16.5288V29H220.366V16.545C220.366 15.5769 220.269 14.7595 220.076 14.0927C219.893 13.4151 219.635 12.8611 219.301 12.4309C218.957 12.0114 218.554 11.7049 218.091 11.5113C217.639 11.3177 217.15 11.2209 216.623 11.2209C216.204 11.2209 215.816 11.2747 215.461 11.3822C215.106 11.4898 214.789 11.6404 214.51 11.834C214.284 11.9846 214.074 12.1674 213.88 12.3825C213.697 12.5869 213.531 12.8181 213.38 13.0763C213.283 12.8074 213.165 12.5707 213.025 12.3664C212.896 12.1513 212.74 11.9684 212.557 11.8178C212.321 11.6135 212.041 11.4629 211.718 11.3661C211.396 11.2693 211.03 11.2209 210.621 11.2209C209.782 11.2209 209.067 11.4414 208.476 11.8824C207.895 12.3126 207.438 12.9042 207.104 13.6571L206.975 11.5436ZM234.935 29H239.484V28.7257C239.258 28.2847 239.086 27.7577 238.968 27.1446C238.85 26.5316 238.79 25.7572 238.79 24.8214V17.3355C238.79 16.3245 238.602 15.4371 238.226 14.6735C237.849 13.8991 237.328 13.2591 236.661 12.7536C235.994 12.2481 235.203 11.8662 234.289 11.6081C233.386 11.35 232.407 11.2209 231.353 11.2209C230.181 11.2209 229.137 11.3715 228.223 11.6726C227.319 11.963 226.556 12.361 225.932 12.8665C225.297 13.372 224.813 13.9582 224.48 14.6251C224.157 15.2919 223.996 15.9964 223.996 16.7386H228.481C228.481 16.4266 228.524 16.1416 228.61 15.8835C228.707 15.6253 228.852 15.4049 229.046 15.222C229.261 15.0177 229.541 14.8617 229.885 14.7541C230.229 14.6358 230.638 14.5767 231.111 14.5767C231.649 14.5767 232.117 14.6466 232.514 14.7864C232.923 14.9155 233.262 15.1037 233.531 15.3511C233.789 15.5877 233.983 15.8727 234.112 16.2062C234.241 16.5288 234.305 16.8945 234.305 17.3032V18.3358H231.805C230.514 18.3358 229.368 18.4541 228.368 18.6907C227.379 18.9166 226.545 19.25 225.867 19.691C225.115 20.175 224.55 20.7934 224.173 21.5463C223.797 22.2885 223.609 23.1435 223.609 24.1116C223.609 24.8645 223.759 25.5636 224.061 26.2089C224.362 26.8435 224.781 27.392 225.319 27.8545C225.857 28.317 226.497 28.6773 227.239 28.9355C227.992 29.1936 228.815 29.3227 229.707 29.3227C230.256 29.3227 230.767 29.2689 231.24 29.1613C231.713 29.0645 232.149 28.9247 232.547 28.7419C232.934 28.5698 233.289 28.3654 233.612 28.1288C233.934 27.8922 234.219 27.6394 234.467 27.3705C234.52 27.6824 234.585 27.9782 234.66 28.2579C234.736 28.5375 234.827 28.7849 234.935 29ZM230.659 25.854C230.24 25.854 229.869 25.8056 229.546 25.7088C229.234 25.6012 228.97 25.4614 228.755 25.2893C228.54 25.1065 228.374 24.886 228.255 24.6278C228.148 24.3589 228.094 24.0685 228.094 23.7566C228.094 23.3587 228.169 22.993 228.32 22.6595C228.47 22.3154 228.702 22.0196 229.014 21.7722C229.325 21.5356 229.729 21.3527 230.224 21.2237C230.718 21.0838 231.315 21.0139 232.014 21.0139H234.305V24.0148C234.176 24.2406 233.999 24.4665 233.773 24.6924C233.547 24.9075 233.278 25.1011 232.966 25.2732C232.654 25.4453 232.305 25.5851 231.918 25.6926C231.53 25.8002 231.111 25.854 230.659 25.854ZM256.408 11.2209C255.236 11.2209 254.155 11.5059 253.165 12.076C252.176 12.6353 251.326 13.4097 250.616 14.3992L250.584 14.012L250.407 11.5436H246.228V29H250.713V18.5132C250.917 18.0185 251.176 17.5883 251.487 17.2226C251.799 16.8569 252.176 16.5557 252.617 16.3191C252.982 16.1147 253.397 15.9641 253.859 15.8673C254.332 15.7598 254.859 15.706 255.44 15.706C255.999 15.706 256.586 15.7437 257.199 15.8189C257.823 15.8835 258.43 15.9857 259.022 16.1255L259.683 11.6565C259.328 11.549 258.86 11.4522 258.28 11.3661C257.71 11.2693 257.086 11.2209 256.408 11.2209ZM270.283 21.7883L275.236 29H280.737L273.235 18.8198L279.818 11.5436H274.429L269.605 16.8354L268.25 18.3842V4.21898H263.765V29H268.25V23.676L270.283 21.7883ZM294.822 24.2084C294.822 24.4772 294.752 24.7246 294.612 24.9505C294.483 25.1764 294.284 25.3753 294.015 25.5474C293.736 25.7195 293.375 25.8593 292.934 25.9669C292.504 26.0637 291.999 26.1121 291.418 26.1121C290.934 26.1121 290.461 26.0637 289.998 25.9669C289.546 25.8701 289.143 25.7141 288.788 25.499C288.433 25.2947 288.143 25.0258 287.917 24.6924C287.691 24.3482 287.562 23.9395 287.53 23.4662H283.254C283.254 24.1761 283.426 24.886 283.771 25.5958C284.125 26.295 284.642 26.9188 285.319 27.4673C285.997 28.0266 286.836 28.4784 287.836 28.8225C288.847 29.1667 290.009 29.3388 291.321 29.3388C292.515 29.3388 293.596 29.2097 294.564 28.9516C295.532 28.6827 296.36 28.3116 297.048 27.8384C297.726 27.3651 298.248 26.8058 298.613 26.1605C298.99 25.5044 299.178 24.7892 299.178 24.0148C299.178 23.1758 298.99 22.4552 298.613 21.8529C298.248 21.2398 297.737 20.7181 297.081 20.2879C296.425 19.8685 295.645 19.5243 294.741 19.2554C293.838 18.9865 292.859 18.766 291.805 18.5939C291.074 18.4863 290.471 18.3627 289.998 18.2228C289.525 18.0723 289.154 17.9055 288.885 17.7227C288.605 17.5506 288.412 17.357 288.304 17.1419C288.197 16.916 288.143 16.674 288.143 16.4159C288.143 16.1578 288.202 15.9157 288.32 15.6899C288.449 15.4533 288.632 15.2489 288.869 15.0768C289.127 14.8832 289.46 14.7326 289.869 14.6251C290.278 14.5175 290.756 14.4637 291.305 14.4637C291.95 14.4637 292.499 14.5444 292.951 14.7057C293.413 14.8671 293.779 15.0822 294.048 15.3511C294.241 15.5554 294.386 15.7867 294.483 16.0448C294.58 16.2922 294.628 16.5611 294.628 16.8515H299.113C299.113 16.0448 298.936 15.2973 298.581 14.6089C298.226 13.9206 297.715 13.3236 297.048 12.8181C296.371 12.3234 295.548 11.9362 294.58 11.6565C293.612 11.3661 292.52 11.2209 291.305 11.2209C290.143 11.2209 289.1 11.3661 288.175 11.6565C287.25 11.9469 286.465 12.3395 285.82 12.8343C285.174 13.329 284.679 13.9044 284.335 14.5605C283.991 15.2166 283.819 15.905 283.819 16.6256C283.819 17.3678 283.986 18.0239 284.319 18.5939C284.663 19.164 285.137 19.6641 285.739 20.0943C286.341 20.5353 287.062 20.9117 287.901 21.2237C288.75 21.5248 289.686 21.7776 290.708 21.9819C291.515 22.1325 292.181 22.2831 292.708 22.4337C293.236 22.5843 293.66 22.7456 293.983 22.9177C294.295 23.1005 294.51 23.2941 294.628 23.4985C294.757 23.7028 294.822 23.9395 294.822 24.2084Z" fill="white"/>
<g clip-path="url(#clip0_709_169)">
<path fill-rule="evenodd" clip-rule="evenodd" d="M33.1649 18.6033C32.7221 19.031 32.5209 19.6472 32.6246 20.2516L33.2935 24.1189C33.5019 25.3228 32.5375 26.3005 31.4435 26.3005C31.1553 26.3005 30.8577 26.2323 30.5694 26.0822L27.0697 24.2562C26.7959 24.114 26.4963 24.0429 26.1955 24.0429C25.8959 24.0429 25.5962 24.114 25.3224 24.2562L21.8227 26.0822C21.5345 26.2323 21.2368 26.3005 20.9486 26.3005C19.8546 26.3005 18.8902 25.3228 19.0987 24.1189L19.7675 20.2516C19.8712 19.6472 19.67 19.031 19.2272 18.6033L16.3953 15.8648C15.2816 14.7874 15.8966 12.91 17.4354 12.6878L21.3488 12.1239C21.9606 12.036 22.4895 11.6548 22.7622 11.1047L24.5126 7.587C24.8568 6.89472 25.5267 6.54907 26.1955 6.54907C26.8654 6.54907 27.5353 6.89472 27.8795 7.587L29.6299 11.1047C29.9026 11.6548 30.4315 12.036 31.0433 12.1239L34.9567 12.6878C36.4956 12.91 37.1105 14.7874 35.9968 15.8648L33.1649 18.6033Z" fill="white"/>
<path d="M48.7556 10.9129V7.27818C48.7556 3.26088 45.4974 0 41.4791 0V3.64018C43.4869 3.64018 45.1176 5.2698 45.1176 7.27818V10.9129C45.1176 13.0992 46.1016 15.0383 47.6281 16.3726C46.1016 17.7065 45.1176 19.6428 45.1176 21.8302V25.4682C45.1176 27.4776 43.4869 29.1067 41.4774 29.1067V32.7453C45.4936 32.7453 48.7556 29.4888 48.7556 25.4682V21.8302C48.7556 19.8207 50.3863 18.1916 52.3941 18.1916V14.5515C50.383 14.5515 48.7556 12.9218 48.7556 10.9129Z" fill="white"/>
<path d="M7.27873 10.9151V7.27655C7.27873 5.26708 8.90944 3.638 10.9189 3.638V0C6.90052 0 3.64018 3.25652 3.64018 7.27655L3.63855 10.9151C3.63855 12.9246 2.00947 14.5531 0 14.5531V18.1916L0.00163741 18.1933C2.01111 18.1933 3.64018 19.8223 3.64018 21.8318V25.4665C3.64018 29.4833 6.8967 32.7453 10.9167 32.7453V29.1051C8.90726 29.1051 7.27873 27.476 7.27873 25.4665V21.8318C7.27873 19.645 6.29419 17.7065 4.76826 16.3726C6.29419 15.0383 7.27873 13.1008 7.27873 10.9151Z" fill="white"/>
</g>
<defs>
<clipPath id="clip0_709_169">
<rect width="194" height="32.5693" fill="white"/>
</clipPath>
</defs>
</svg>
